<?xml version="1.0" encoding="UTF-8"?>
<svg width="250px" height="250px" viewBox="0 0 250 250" version="1.1" xmlns="http://www.w3.org/2000/svg" xmlns:xlink="http://www.w3.org/1999/xlink">
    <!-- Generator: Sketch 39.1 (31720) - http://www.bohemiancoding.com/sketch -->
    <title>Group 2</title>
    <desc>Created with Sketch.</desc>
    <defs>
        <path d="M22.6184135,77.954133 C22.2431071,75.2180409 24.1788049,73 26.9401181,73 L65.0482966,73 C67.8104146,73 69.6651934,75.1966724 69.1879345,77.9242734 L66.5368262,93.0757266 C66.0609671,95.7953277 63.4362501,98 60.6720738,98 L30.3712143,98 C27.6080601,98 25.0637606,95.7814168 24.6885285,93.045867 L22.6184135,77.954133 Z" id="path-1"></path>
        <mask id="mask-2" maskContentUnits="userSpaceOnUse" maskUnits="objectBoundingBox" x="0" y="0" width="46.6909186" height="25" fill="white">
            <use xlink:href="#path-1"></use>
        </mask>
        <path d="M122.216251,77.954133 C122.591558,75.2180409 120.65586,73 117.894547,73 L79.7863683,73 C77.0242504,73 75.1694716,75.1966724 75.6467304,77.9242734 L78.2978387,93.0757266 C78.7736978,95.7953277 81.3984149,98 84.1625912,98 L114.463451,98 C117.226605,98 119.770904,95.7814168 120.146136,93.045867 L122.216251,77.954133 L122.216251,77.954133 Z" id="path-3"></path>
        <mask id="mask-4" maskContentUnits="userSpaceOnUse" maskUnits="objectBoundingBox" x="0" y="0" width="46.6909186" height="25" fill="white">
            <use xlink:href="#path-3"></use>
        </mask>
        <rect id="path-5" x="67" y="75" width="12" height="5"></rect>
        <mask id="mask-6" maskContentUnits="userSpaceOnUse" maskUnits="objectBoundingBox" x="0" y="0" width="12" height="5" fill="white">
            <use xlink:href="#path-5"></use>
        </mask>
    </defs>
    <g id="Page-2" stroke="none" stroke-width="1" fill="none" fill-rule="evenodd">
        <g id="Group-2">
            <rect id="Rectangle-8" fill="#009DD8" x="0" y="0" width="250" height="250" rx="10"></rect>
            <g id="Group" transform="translate(52.000000, 19.000000)">
                <path d="M10.6476676,104.07933 C12.9285576,119.776188 17.052888,132.714227 25.5093427,139.921785 C40.236853,152.474255 68.5708963,152.345527 72.4421713,152.266856 C76.3134464,152.345527 104.64749,152.474255 119.375,139.921785 C127.831455,132.714227 131.955785,119.776188 134.236675,104.07933 C135.193839,104.670247 136.260209,105 137.384343,105 C141.526478,105 144.884343,100.522847 144.884343,95 C144.884343,89.4771525 141.526478,85 137.384343,85 C136.973186,85 136.569758,85.044113 136.176573,85.1289831 C136.824393,76.0448282 137.22687,66.5151318 137.740234,56.9652569 C139.422089,25.6784925 126.131311,13.8261563 111.004883,7.19309512 C94.364882,-0.103679976 75.5410166,-0.051132357 72.4421713,0.011257016 C69.343326,-0.051132357 50.5194607,-0.103679976 33.8794598,7.19309512 C18.7530317,13.8261563 5.46225316,25.6784925 7.14410829,56.9652569 C7.65747252,66.5151318 8.05995015,76.0448282 8.70776944,85.1289847 C8.314585,85.044113 7.91115618,85 7.5,85 C3.35786438,85 0,89.4771525 0,95 C0,100.522847 3.35786438,105 7.5,105 C8.62413345,105 9.69050342,104.670247 10.6476676,104.07933 L10.6476676,104.07933 Z" id="head" fill="#FBCB98"></path>
                <path d="M73,152.275485 C78.4882897,152.33647 105.218018,151.987985 119.375,139.921785 C127.831455,132.714227 131.955785,119.776188 134.236675,104.07933 C135.193839,104.670247 136.260209,105 137.384343,105 C141.526478,105 144.884343,100.522847 144.884343,95 C144.884343,89.4771525 141.526478,85 137.384343,85 C136.973186,85 136.569758,85.044113 136.176573,85.1289831 C136.824393,76.0448282 137.22687,66.5151318 137.740234,56.9652569 C139.422089,25.6784925 126.131311,13.8261563 111.004883,7.19309512 C95.1695268,0.249163297 77.3564059,-0.0390293663 73,0.00310522809 L73,152.275485 Z" id="Combined-Shape" fill="#000000" opacity="0.05"></path>
                <path d="M108.416662,115.428519 L106.080065,110.32964 C104.928639,107.817018 101.763141,105.790559 99.0038362,105.790559 L45.9961638,105.790559 C43.2422034,105.790559 40.1395154,107.857678 39.0780539,110.407599 L36.9807536,115.445888 C32.1545071,114.48394 28.262098,113.178691 26.5283632,111.407737 C19.7861757,104.520808 19.580079,94.1124317 11.4355478,96.2953026 C7.019471,97.4788852 5.53617568,126.190655 4.35355849,154.141405 C3.17094131,182.092156 4.60984874,189.13564 14.0107851,199.386701 C25.6469972,212.075172 66.3288478,211.934081 72,211.851309 L72,211.973339 C72,211.973339 118.129883,213.170475 130.647461,199.520936 C140.048397,189.269875 141.487305,182.22639 140.304688,154.27564 C139.12207,126.32489 137.638775,97.6131202 133.222698,96.4295376 C125.078167,94.2466666 124.87207,104.655043 118.129883,111.541972 C116.485571,113.221583 112.899525,114.48229 108.416662,115.428519 L108.416662,115.428519 Z" id="beard" fill="#9B6340"></path>
                <path d="M73,105.790559 L99.0038362,105.790559 C101.763141,105.790559 104.928639,107.817018 106.080065,110.32964 L108.416662,115.428519 L108.416662,115.428519 C112.899525,114.48229 116.485571,113.221583 118.129883,111.541972 C124.87207,104.655043 125.078167,94.2466666 133.222698,96.4295376 C137.638775,97.6131202 139.12207,126.32489 140.304688,154.27564 C141.487305,182.22639 140.048397,189.269875 130.647461,199.520936 C119.221741,211.97988 79.7917168,212.069223 73,211.990016 L73,105.790559 Z" id="Combined-Shape" fill="#050505" opacity="0.05"></path>
                <rect id="Rectangle" fill="#EFB073" x="33" y="28" width="79" height="5" rx="2.5"></rect>
                <rect id="Rectangle" fill="#EFB073" x="42" y="37" width="61" height="5" rx="2.5"></rect>
                <use id="Rectangle-2" stroke="#5C5A5A" mask="url(#mask-2)" stroke-width="8" xlink:href="#path-1"></use>
                <path d="M94.1612343,82.5714286 C94.0298398,82.9792745 93.9593674,83.4107363 93.9593674,83.8571429 C93.9593674,86.3818731 96.213542,88.4285714 98.9942073,88.4285714 C101.774873,88.4285714 104.029047,86.3818731 104.029047,83.8571429 C104.029047,83.4107363 103.958575,82.9792745 103.82718,82.5714286 L107.011953,82.5714286 C107.836242,82.5714286 108.504461,81.8940532 108.504461,81.077581 L108.504461,80.6367047 C108.504461,79.8116755 107.827511,79.1428571 107.011953,79.1428571 L90.9764614,79.1428571 C90.1521724,79.1428571 89.4839542,79.8202325 89.4839542,80.6367047 L89.4839542,81.077581 C89.4839542,81.9026102 90.160904,82.5714286 90.9764614,82.5714286 L94.1612343,82.5714286 Z M50.8271804,82.5714286 C50.9585749,82.9792745 51.0290472,83.4107363 51.0290472,83.8571429 C51.0290472,86.3818731 48.7748726,88.4285714 45.9942073,88.4285714 C43.213542,88.4285714 40.9593674,86.3818731 40.9593674,83.8571429 C40.9593674,83.4107363 41.0298398,82.9792745 41.1612343,82.5714286 L37.9764614,82.5714286 C37.1521724,82.5714286 36.4839542,81.8940532 36.4839542,81.077581 L36.4839542,80.6367047 C36.4839542,79.8116755 37.160904,79.1428571 37.9764614,79.1428571 L54.0119533,79.1428571 C54.8362423,79.1428571 55.5044605,79.8202325 55.5044605,80.6367047 L55.5044605,81.077581 C55.5044605,81.9026102 54.8275106,82.5714286 54.0119533,82.5714286 L50.8271804,82.5714286 Z" id="Combined-Shape" fill="#636363"></path>
                <use id="Rectangle-2-Copy" stroke="#5C5A5A" mask="url(#mask-4)" stroke-width="8" xlink:href="#path-3"></use>
                <use id="Rectangle-4" stroke="#5C5B5B" mask="url(#mask-6)" stroke-width="8" xlink:href="#path-5"></use>
                <rect id="Rectangle-6" fill="#5C5B5B" x="57" y="122" width="30" height="6" rx="3"></rect>
                <circle id="Oval-3" fill="#5C5B5B" cx="6" cy="97" r="3"></circle>
                <circle id="Oval-3" fill="#5C5B5B" cx="139" cy="97" r="3"></circle>
            </g>
        </g>
    </g>
</svg>