<?xml version="1.0" encoding="UTF-8"?>
<svg width="145px" height="212px" viewBox="0 0 145 212" version="1.1" xmlns="http://www.w3.org/2000/svg" xmlns:xlink="http://www.w3.org/1999/xlink">
    <defs>
        <path d="M0.618413518,4.95413304 C0.243107055,2.21804091 2.17880492,0 4.9401181,0 L43.0482966,0 C45.8104146,0 47.6651934,2.19667242 47.1879345,4.92427336 L44.5368262,20.0757266 C44.0609671,22.7953277 41.4362501,25 38.6720738,25 L8.3712143,25 C5.60806005,25 3.06376056,22.7814168 2.68852849,20.045867 L0.618413518,4.95413304 Z" id="path-1"></path>
        <mask id="mask-2" maskContentUnits="userSpaceOnUse" maskUnits="objectBoundingBox" x="0" y="0" width="46.6909186" height="25" fill="white">
            <use xlink:href="#path-1"></use>
        </mask>
        <path d="M0.618413518,4.95413304 C0.243107055,2.21804091 2.17880492,0 4.9401181,0 L43.0482966,0 C45.8104146,0 47.6651934,2.19667242 47.1879345,4.92427336 L44.5368262,20.0757266 C44.0609671,22.7953277 41.4362501,25 38.6720738,25 L8.3712143,25 C5.60806005,25 3.06376056,22.7814168 2.68852849,20.045867 L0.618413518,4.95413304 Z" id="path-3"></path>
        <mask id="mask-4" maskContentUnits="userSpaceOnUse" maskUnits="objectBoundingBox" x="0" y="0" width="46.6909186" height="25" fill="white">
            <use xlink:href="#path-3"></use>
        </mask>
        <rect id="path-5" x="67" y="75" width="12" height="5"></rect>
        <mask id="mask-6" maskContentUnits="userSpaceOnUse" maskUnits="objectBoundingBox" x="0" y="0" width="12" height="5" fill="white">
            <use xlink:href="#path-5"></use>
        </mask>
    </defs>
    <g id="Page-2" stroke="none" stroke-width="1" fill="none" fill-rule="evenodd">
        <g id="Group-5">
            <path d="M10.6476676,104.07933 C12.9285576,119.776188 17.052888,132.714227 25.5093427,139.921785 C40.236853,152.474255 68.5708963,152.345527 72.4421713,152.266856 C76.3134464,152.345527 104.64749,152.474255 119.375,139.921785 C127.831455,132.714227 131.955785,119.776188 134.236675,104.07933 C135.193839,104.670247 136.260209,105 137.384343,105 C141.526478,105 144.884343,100.522847 144.884343,95 C144.884343,89.4771525 141.526478,85 137.384343,85 C136.973186,85 136.569758,85.044113 136.176573,85.1289831 C136.824393,76.0448282 137.22687,66.5151318 137.740234,56.9652569 C139.422089,25.6784925 126.131311,13.8261563 111.004883,7.19309512 C94.364882,-0.103679976 75.5410166,-0.051132357 72.4421713,0.011257016 C69.343326,-0.051132357 50.5194607,-0.103679976 33.8794598,7.19309512 C18.7530317,13.8261563 5.46225316,25.6784925 7.14410829,56.9652569 C7.65747252,66.5151318 8.05995015,76.0448282 8.70776944,85.1289847 C8.314585,85.044113 7.91115618,85 7.5,85 C3.35786438,85 0,89.4771525 0,95 C0,100.522847 3.35786438,105 7.5,105 C8.62413345,105 9.69050342,104.670247 10.6476676,104.07933 Z" id="head" fill="#FBCB98"></path>
            <path d="M108.416662,115.428519 L106.080065,110.32964 C104.928639,107.817018 101.763141,105.790559 99.0038362,105.790559 L45.9961638,105.790559 C43.2422034,105.790559 40.1395154,107.857678 39.0780539,110.407599 L36.9807536,115.445888 C32.1545071,114.48394 28.262098,113.178691 26.5283632,111.407737 C19.7861757,104.520808 19.580079,94.1124317 11.4355478,96.2953026 C7.019471,97.4788852 5.53617568,126.190655 4.35355849,154.141405 C3.17094131,182.092156 4.60984874,189.13564 14.0107851,199.386701 C25.6469972,212.075172 66.3288478,211.934081 72,211.851309 L72,211.973339 C72,211.973339 118.129883,213.170475 130.647461,199.520936 C140.048397,189.269875 141.487305,182.22639 140.304688,154.27564 C139.12207,126.32489 137.638775,97.6131202 133.222698,96.4295376 C125.078167,94.2466666 124.87207,104.655043 118.129883,111.541972 C116.485571,113.221583 112.899525,114.48229 108.416662,115.428519 Z" id="beard" fill="#9B6340"></path>
            <g id="forehead" transform="translate(33.000000, 28.000000)" fill="#EFB073">
                <rect id="Rectangle" x="0" y="0" width="79" height="5" rx="2.5"></rect>
                <rect id="Rectangle" x="9" y="9" width="61" height="5" rx="2.5"></rect>
            </g>
            <g id="Group-2" transform="translate(22.000000, 73.000000)">
                <use id="Rectangle-2" stroke="#5C5A5A" mask="url(#mask-2)" stroke-width="8" xlink:href="#path-1"></use>
                <ellipse id="Oval-2" fill="#636363" cx="23.9942073" cy="10.8571429" rx="5.03483992" ry="4.57142857"></ellipse>
                <rect id="Rectangle-3" fill="#646464" x="14.4839542" y="6.14285714" width="19.0205064" height="3.42857143" rx="1.71428571"></rect>
            </g>
            <g id="Group" transform="translate(75.000000, 73.000000)">
                <use id="Rectangle-2-Copy" stroke="#5C5A5A" mask="url(#mask-4)" stroke-width="8" transform="translate(23.917332, 12.500000) scale(-1, 1) translate(-23.917332, -12.500000) " xlink:href="#path-3"></use>
                <ellipse id="Oval-2-Copy" fill="#636363" transform="translate(23.994207, 10.857143) scale(-1, 1) translate(-23.994207, -10.857143) " cx="23.9942073" cy="10.8571429" rx="5.03483992" ry="4.57142857"></ellipse>
                <rect id="Rectangle-3-Copy" fill="#646464" transform="translate(23.994207, 7.857143) scale(-1, 1) translate(-23.994207, -7.857143) " x="14.4839542" y="6.14285714" width="19.0205064" height="3.42857143" rx="1.71428571"></rect>
            </g>
            <use id="Rectangle-4" stroke="#5C5B5B" mask="url(#mask-6)" stroke-width="8" xlink:href="#path-5"></use>
            <rect id="Rectangle-6" fill="#5C5B5B" x="57" y="122" width="30" height="6" rx="3"></rect>
            <circle id="Oval-3" fill="#5C5B5B" cx="6" cy="97" r="3"></circle>
            <circle id="Oval-3" fill="#5C5B5B" cx="139" cy="97" r="3"></circle>
        </g>
    </g>
</svg>
